# xmcd
#
# Track frame offsets: 
#        150
#        13260
#        28484
#        45239
#        58176
#        68866
#        83037
#        95471
#        108201
#        124787
#
# Disc length: 1854 seconds
#
# Revision: 0
# Processed by: cddbd v1.5.2PL0 Copyright (c) Steve Scherf et al.
# Submitted via: ExactAudioCopy v0.95b4
#
DISCID=81073c0a
DTITLE=Various Artist - The Ladies Of Country Gospel
DYEAR=2004
DGENRE=Gospel
TTITLE0=Life's Railway To Heaven - Patsy Cline
TTITLE1=Just As I Am - Holly Dunn
TTITLE2=The Old Rugged Cross - Brenda Lee
TTITLE3=Blessed Assurance - Sandy Posey
TTITLE4=He Will Do It For You - Patsy Cline
TTITLE5=In The Sweet By And By - Deborah Allen
TTITLE6=This Little Light Of Mine - Brenda Lee
TTITLE7=Just A Closer Walk With Thee - Patsy Cline
TTITLE8=What A Friend We Have In Jesus - Sandy Posey
TTITLE9=He's Got The Whole World In His Hands - Deborah Allen
EXTD=
EXTT0=
EXTT1=
EXTT2=
EXTT3=
EXTT4=
EXTT5=
EXTT6=
EXTT7=
EXTT8=
EXTT9=
PLAYORDER=
